# Blender 4.0.2
# www.blender.org
mtllib Porte.mtl
o Cube
v -0.940341 0.000000 1.250016
v -0.940341 8.039948 1.250016
v -0.940341 0.000000 -1.250016
v -0.940341 8.039948 -1.250016
v -0.411359 0.000000 1.250016
v -0.411359 8.039948 1.250016
v -0.411359 0.000000 -1.250016
v -0.411359 8.039948 -1.250016
v -0.940341 3.996959 1.250016
v -0.940341 3.996959 -1.250016
v -0.411359 3.996959 -1.250016
v -0.411359 3.996959 1.250016
v -0.940341 3.805275 -1.250016
v -0.411359 3.805275 -1.250016
v -0.411359 3.805275 1.250016
v -0.940341 3.805275 1.250016
v -0.940341 0.000000 0.999163
v -0.940341 8.039948 0.999163
v -0.411359 0.000000 0.999163
v -0.411359 8.039948 0.999163
v -0.940341 3.805275 0.999163
v -0.411359 3.805275 0.999163
v -0.940341 8.039948 -1.006284
v -0.411359 0.000000 -1.006284
v -0.940341 3.805275 -1.006284
v -0.940341 0.000000 -1.006284
v -0.411359 8.039948 -1.006284
v -0.411359 3.805275 -1.006284
v -0.940341 0.000000 0.795219
v -0.411359 8.039948 0.795219
v -0.411359 3.996959 0.795219
v -0.411359 3.805275 0.795219
v -0.940341 8.039948 0.795219
v -0.411359 0.000000 0.795219
v -0.940341 3.996959 0.795219
v -0.940341 3.805275 0.795219
v -0.940341 8.039948 -0.801374
v -0.411359 0.000000 -0.801374
v -0.940341 3.996959 -0.801374
v -0.940341 3.805275 -0.801374
v -0.940341 0.000000 -0.801374
v -0.411359 8.039948 -0.801374
v -0.411359 3.996959 -0.801374
v -0.411359 3.805275 -0.801374
v -1.038700 0.000000 0.999163
v -0.313000 3.996959 0.795219
v -0.313000 0.000000 0.999163
v -0.313000 0.000000 -1.006284
v -1.038700 3.996959 -0.801374
v -1.038700 0.000000 -1.006284
v -0.313000 3.996959 -0.801374
v -1.038700 3.996959 0.795219
v -0.411359 1.995955 1.250016
v -0.940341 1.995955 1.250016
v -0.411359 1.995955 0.892011
v -0.940341 1.995955 0.892011
v -0.940341 1.995955 0.709866
v -0.411359 1.995955 0.709866
v -0.313000 1.995955 0.892011
v -1.038700 1.995955 0.892011
v -0.940341 2.001139 -1.250016
v -0.411359 2.001139 -1.250016
v -0.411359 2.001139 -0.899081
v -0.940341 2.001139 -0.899081
v -0.411359 2.001139 -0.716072
v -0.940341 2.001139 -0.716072
v -0.313000 2.001139 -0.899081
v -1.038700 2.001139 -0.899081
v -0.940341 2.297508 1.250016
v -0.411359 2.297508 1.250016
v -0.411359 2.297508 0.911193
v -0.940341 2.297508 0.911193
v -0.940341 2.297508 0.725146
v -0.411359 2.297508 0.725146
v -0.313000 2.297508 0.911193
v -1.038700 2.297508 0.911193
v -0.940341 2.296644 -1.250016
v -0.411359 2.296644 -1.250016
v -0.411359 2.296644 -0.918272
v -0.940341 2.296644 -0.918272
v -0.411359 2.296644 -0.731343
v -0.940341 2.296644 -0.731343
v -0.313000 2.296644 -0.918272
v -1.038700 2.296644 -0.918272
v -0.411359 1.699680 1.250016
v -0.411359 1.699680 0.911193
v -0.940341 1.699680 0.911193
v -0.940341 1.699680 0.725146
v -0.411359 1.699680 0.725146
v -0.313000 1.699680 0.911193
v -1.038700 1.699680 0.911193
v -0.940341 1.699680 1.250016
v -0.940341 1.690081 -1.250016
v -0.411359 1.690081 -1.250016
v -0.411359 1.690081 -0.918272
v -0.940341 1.690081 -0.918272
v -0.411359 1.690081 -0.731343
v -0.940341 1.690081 -0.731343
v -0.313000 1.690081 -0.918272
v -1.038700 1.690081 -0.918272
v -0.212703 3.805275 0.795219
v -1.138996 3.805275 -0.801374
v -0.212703 3.805275 -0.801374
v -1.138996 3.805275 0.795219
v -0.411359 3.921999 0.999163
v -0.411359 3.996959 0.924203
v -0.411359 4.071918 0.999163
v -0.411359 3.996959 1.074122
v -0.940341 3.996959 0.924203
v -0.940341 3.921999 0.999163
v -0.940341 3.996959 1.074122
v -0.940341 4.071918 0.999163
v -0.940341 3.921999 -1.006284
v -0.940341 3.996959 -0.931324
v -0.940341 4.071918 -1.006284
v -0.940341 3.996959 -1.081244
v -0.411359 3.996959 -0.931324
v -0.411359 3.921999 -1.006284
v -0.411359 3.996959 -1.081244
v -0.411359 4.071918 -1.006284
v -1.038700 0.000000 0.870262
v -0.963740 0.000000 0.795219
v -0.313000 3.921999 0.999163
v -0.313000 3.996959 0.924203
v -0.313000 3.805275 0.870264
v -0.387960 3.805275 0.795219
v -0.313000 3.805275 0.720259
v -0.238040 3.805275 0.795219
v -0.313000 3.805275 0.924203
v -0.313000 3.880235 0.999163
v -0.387960 3.805275 0.999163
v -0.313000 3.730442 0.994797
v -1.038700 3.880235 0.999163
v -1.038700 3.805275 0.924203
v -1.038700 3.730442 0.994797
v -0.963740 3.805275 0.999163
v -1.038700 3.996959 0.924203
v -1.038700 3.921999 0.999163
v -0.313000 0.000000 -0.876416
v -0.387960 0.000000 -0.801374
v -1.038700 3.996959 -0.931324
v -1.038700 3.921999 -1.006284
v -1.038700 3.805275 -0.876418
v -0.963740 3.805275 -0.801374
v -1.038700 3.805275 -0.726414
v -1.113660 3.805275 -0.801374
v -1.038700 3.805275 -0.931324
v -1.038700 3.880235 -1.006284
v -0.963740 3.805275 -1.006284
v -1.038700 3.730442 -1.001918
v -0.313000 3.996959 -0.931324
v -0.313000 3.921999 -1.006284
v -0.313000 3.880235 -1.006284
v -0.313000 3.805275 -0.931324
v -0.313000 3.730442 -1.001918
v -0.387960 3.805275 -1.006284
v -0.387960 3.805275 -0.801374
v -0.313000 3.805275 -0.876418
v -0.238040 3.805275 -0.801374
v -0.313000 3.805275 -0.726414
v -0.387960 0.000000 0.795219
v -0.313000 0.000000 0.870262
v -0.963740 3.805275 0.795219
v -1.038700 3.805275 0.870264
v -1.113660 3.805275 0.795219
v -1.038700 3.805275 0.720259
v -0.963740 0.000000 -0.801374
v -1.038700 0.000000 -0.876416
v -0.963740 1.995955 0.709866
v -1.038700 1.995955 0.784911
v -0.313000 1.995955 0.784911
v -0.387960 1.995955 0.709866
v -0.387960 2.001139 -0.716072
v -0.313000 2.001139 -0.791116
v -1.038700 2.001139 -0.791116
v -0.963740 2.001139 -0.716072
v -1.038700 2.297508 0.800191
v -0.963740 2.297508 0.725146
v -0.387960 2.297508 0.725146
v -0.313000 2.297508 0.800191
v -0.313000 2.296644 -0.806387
v -0.387960 2.296644 -0.731343
v -0.963740 2.296644 -0.731343
v -1.038700 2.296644 -0.806387
v -1.038700 1.699680 0.800190
v -0.963740 1.699680 0.725146
v -0.387960 1.699680 0.725146
v -0.313000 1.699680 0.800190
v -0.313000 1.690081 -0.806386
v -0.387960 1.690081 -0.731343
v -0.963740 1.690081 -0.731343
v -1.038700 1.690081 -0.806386
v -0.212703 3.921999 0.795219
v -0.287663 3.996959 0.795219
v -0.287663 3.996959 0.924203
v -0.212703 3.921999 0.999163
v -0.212703 3.880235 0.999163
v -0.212703 3.805275 0.924203
v -1.064036 3.996959 0.924203
v -1.138996 3.921999 0.999163
v -1.138996 3.805275 0.924203
v -1.138996 3.880235 0.999163
v -1.138996 3.921999 -0.801374
v -1.064036 3.996959 -0.801374
v -1.138996 3.921999 -1.006284
v -1.064036 3.996959 -0.931324
v -1.138996 3.880235 -1.006284
v -1.138996 3.805275 -0.931324
v -0.287663 3.996959 -0.931324
v -0.212703 3.921999 -1.006284
v -0.212703 3.805275 -0.931324
v -0.212703 3.880235 -1.006284
v -0.212703 3.921999 -0.801374
v -0.287663 3.996959 -0.801374
v -1.064036 3.996959 0.795219
v -1.138996 3.921999 0.795219
vn -0.0000 1.0000 -0.0000
vn -0.0000 -0.0000 -1.0000
vn -0.0000 -0.0000 1.0000
vn -0.0000 -1.0000 -0.0000
vn 1.0000 -0.0000 -0.0000
vn -1.0000 -0.0000 -0.0000
vn -0.0000 0.0517 0.9987
vn -0.0000 0.0520 -0.9986
vn -0.0000 0.0464 0.9989
vn -0.0000 0.0464 -0.9989
vn -0.0000 -0.0582 0.9983
vn -0.0000 -0.0582 -0.9983
vn -0.0000 -0.0515 -0.9987
vn -0.0000 0.0646 0.9979
vn -0.0000 0.0506 -0.9987
vn -0.0000 -0.0635 0.9980
vn -0.0000 -0.0490 0.9988
vn -0.0000 0.0516 0.9987
vn -0.0000 0.0616 -0.9981
vn -0.0000 -0.0648 -0.9979
vn -0.0000 -0.0414 0.9991
vn -0.0000 -0.0412 -0.9992
vn 0.7070 -0.0206 0.7070
vn -0.7070 -0.0206 0.7070
vn -0.7070 -0.0206 -0.7070
vn 0.7070 -0.0206 -0.7070
vn -0.0000 0.7071 -0.7071
vn -0.7072 -0.0291 -0.7064
vn 0.7072 -0.0291 -0.7064
vn 0.7072 -0.0293 0.7064
vn -0.7072 -0.0293 0.7064
vn -0.0000 0.7071 0.7071
vn -0.7071 0.0358 -0.7063
vn 0.7071 0.0358 -0.7063
vn 0.7070 0.0365 0.7062
vn -0.7070 0.0365 0.7062
vn -0.7071 0.0328 -0.7063
vn 0.7071 0.0328 -0.7063
vn 0.7071 0.0328 0.7063
vn -0.7071 0.0328 0.7063
vn -0.7070 -0.0364 -0.7062
vn 0.7070 -0.0364 -0.7062
vn 0.7071 -0.0347 0.7063
vn -0.7071 -0.0347 0.7063
vn 0.7071 0.7071 -0.0000
vn -0.7071 0.7071 -0.0000
vn -0.0000 -0.7071 -0.7071
vn -0.0000 -0.7071 0.7071
vt 0.319635 0.808015
vt 0.319635 0.819806
vt 0.307013 0.819806
vt 0.307013 0.808015
vt 0.018040 0.613966
vt 0.018040 0.522960
vt 0.085921 0.522960
vt 0.085921 0.613966
vt 0.326185 0.663141
vt 0.326185 0.651437
vt 0.338806 0.651437
vt 0.338806 0.663141
vt 0.919458 0.410046
vt 0.919458 0.281343
vt 0.987340 0.281343
vt 0.987340 0.410046
vt 0.525109 0.890133
vt 0.525109 0.958014
vt 0.492919 0.958014
vt 0.492919 0.890133
vt 0.085921 0.318870
vt 0.018040 0.318870
vt 0.018040 0.296108
vt 0.085921 0.296108
vt 0.919458 0.434644
vt 0.987340 0.434644
vt 0.179939 0.797860
vt 0.179939 0.998196
vt 0.098487 0.998196
vt 0.098487 0.812833
vt 0.128425 0.797860
vt 0.018040 0.631360
vt 0.085921 0.631360
vt 0.180521 0.798692
vt 0.180521 0.999129
vt 0.098842 0.999129
vt 0.098842 0.813673
vt 0.128721 0.798692
vt 0.133924 0.458889
vt 0.098842 0.760385
vt 0.001688 0.760385
vt 0.001688 0.458889
vt 0.018040 0.768252
vt 0.085921 0.768252
vt 0.133621 0.458398
vt 0.098487 0.759571
vt -0.001699 0.759571
vt -0.001699 0.458398
vt 0.919458 0.628128
vt 0.987340 0.628128
vt 0.994422 0.768332
vt 0.994422 0.986448
vt 0.981800 0.986448
vt 0.981800 0.768332
vt 0.998223 0.459061
vt 0.998223 0.760385
vt 0.898230 0.760385
vt 0.863165 0.459061
vt 0.868351 0.798692
vt 0.898230 0.813673
vt 0.898230 0.999129
vt 0.816937 0.999129
vt 0.816937 0.798692
vt 0.068962 0.798692
vt 0.001688 0.999129
vt 0.001688 0.798692
vt 0.085921 0.337376
vt 0.018040 0.337376
vt 0.407624 0.664059
vt 0.407624 0.731940
vt 0.381453 0.731940
vt 0.381453 0.664059
vt 0.613485 0.651437
vt 0.613485 0.666416
vt 0.610483 0.666416
vt 0.600863 0.656796
vt 0.600863 0.651437
vt 0.998223 0.798692
vt 0.928110 0.798692
vt 0.898230 0.783712
vt 0.869488 0.797860
vt 0.899426 0.812833
vt 0.899426 0.998196
vt 0.817588 0.998196
vt 0.817588 0.797860
vt 0.562936 0.890133
vt 0.562936 0.958014
vt 0.531659 0.958014
vt 0.531659 0.890133
vt 0.018040 0.500844
vt 0.085921 0.500844
vt 0.326185 0.819806
vt 0.326185 0.808015
vt 0.338806 0.808015
vt 0.338806 0.819806
vt 0.996768 0.458225
vt 0.996768 0.759571
vt 0.899425 0.759571
vt 0.864275 0.458225
vt 0.630627 0.664059
vt 0.620035 0.664059
vt 0.620035 0.651437
vt 0.623825 0.651437
vt 0.630627 0.661056
vt 0.342058 0.651437
vt 0.342058 0.663141
vt 0.637177 0.651437
vt 0.647768 0.651437
vt 0.647768 0.654440
vt 0.640966 0.664059
vt 0.637177 0.664059
vt 0.319635 0.651437
vt 0.319635 0.663141
vt 0.307013 0.663141
vt 0.307013 0.651437
vt 0.581692 0.666416
vt 0.581692 0.651437
vt 0.594314 0.651437
vt 0.594314 0.656796
vt 0.584694 0.666416
vt 0.109500 0.835382
vt 0.109500 0.996725
vt 0.096878 0.996725
vt 0.096878 0.835382
vt 0.141542 0.882491
vt 0.141542 0.677608
vt 0.209424 0.677608
vt 0.209424 0.882491
vt 0.085921 0.482250
vt 0.018040 0.482250
vt 0.915035 0.501206
vt 0.906043 0.283094
vt 0.920288 0.283094
vt 0.931576 0.501206
vt 0.809873 0.701354
vt 0.809873 0.507755
vt 0.877754 0.507755
vt 0.877754 0.701354
vt 0.119301 0.882491
vt 0.128920 0.892121
vt 0.128920 0.899166
vt 0.116050 0.899166
vt 0.116050 0.882491
vt 0.827446 0.501206
vt 0.818460 0.284326
vt 0.832817 0.284326
vt 0.844111 0.501206
vt 0.374903 0.664059
vt 0.374903 0.731940
vt 0.348608 0.731940
vt 0.348608 0.664059
vt 0.938126 0.501206
vt 0.949415 0.283094
vt 0.963659 0.283094
vt 0.954667 0.501206
vt 0.996768 0.797860
vt 0.996768 0.998196
vt 0.929363 0.797860
vt 0.958191 0.650928
vt 0.890309 0.650928
vt 0.890309 0.507755
vt 0.958191 0.507755
vt 0.119301 0.677608
vt 0.128920 0.687227
vt 0.128920 0.872871
vt 0.116050 0.677608
vt 0.212426 0.677608
vt 0.222046 0.687227
vt 0.222046 0.872871
vt 0.212426 0.882491
vt 0.231665 0.882491
vt 0.231665 0.677608
vt 0.234916 0.677608
vt 0.234916 0.882491
vt 0.818460 0.206489
vt 0.827446 0.012894
vt 0.834492 0.012894
vt 0.843551 0.022497
vt 0.832817 0.206489
vt 0.569782 0.664059
vt 0.575142 0.664059
vt 0.575142 0.676929
vt 0.569782 0.676929
vt 0.981800 0.196754
vt 0.981800 0.003275
vt 0.984803 0.003275
vt 0.994422 0.012878
vt 0.994422 0.196754
vt 0.266064 0.882615
vt 0.251085 0.882615
vt 0.251085 0.677732
vt 0.266064 0.677732
vt 0.806870 0.701354
vt 0.806870 0.507755
vt 0.528288 0.664059
vt 0.532077 0.664059
vt 0.532077 0.676929
vt 0.528288 0.676929
vt 0.994422 0.498136
vt 0.994422 0.691616
vt 0.981800 0.691616
vt 0.981800 0.507739
vt 0.991419 0.498136
vt 0.906044 0.206378
vt 0.915036 0.012894
vt 0.921957 0.012894
vt 0.931016 0.022497
vt 0.920288 0.206378
vt 0.222046 0.667978
vt 0.222046 0.661056
vt 0.234916 0.661056
vt 0.109500 0.651437
vt 0.109500 0.780343
vt 0.096878 0.780343
vt 0.096878 0.657831
vt 0.106497 0.651437
vt 0.374903 0.744562
vt 0.358237 0.744562
vt 0.348608 0.734943
vt 0.303761 0.819806
vt 0.303761 0.808015
vt 0.098842 0.783712
vt 0.899426 0.782887
vt 0.068550 0.797860
vt -0.001699 0.998196
vt -0.001699 0.797860
vt 0.381453 0.651437
vt 0.397994 0.651437
vt 0.407624 0.661056
vt 0.998223 0.999129
vt 0.961194 0.507755
vt 0.961194 0.650928
vt 0.880757 0.507755
vt 0.880757 0.701354
vt 0.890309 0.679677
vt 0.890309 0.705174
vt 0.887307 0.705174
vt 0.887307 0.679677
vt 0.981800 0.273471
vt 0.981800 0.235450
vt 0.994422 0.235450
vt 0.994422 0.273471
vt 0.864418 0.244410
vt 0.861955 0.206489
vt 0.876313 0.206489
vt 0.878273 0.244410
vt 0.887307 0.650928
vt 0.958191 0.705174
vt 0.958191 0.679677
vt 0.961194 0.679677
vt 0.961194 0.705174
vt 0.998223 0.339587
vt 0.998223 0.398797
vt 0.855518 0.398797
vt 0.863165 0.339587
vt 0.994422 0.730312
vt 0.981800 0.730312
vt 0.919458 0.704844
vt 0.919458 0.666825
vt 0.987340 0.666825
vt 0.987340 0.704844
vt 0.133621 0.338983
vt 0.141282 0.398163
vt -0.001699 0.398163
vt -0.001699 0.338983
vt 0.809873 0.739275
vt 0.809873 0.779191
vt 0.806870 0.779191
vt 0.806870 0.739275
vt 0.297212 0.677608
vt 0.282233 0.677608
vt 0.282233 0.651437
vt 0.287592 0.651437
vt 0.297212 0.661056
vt 0.877754 0.779191
vt 0.877754 0.739275
vt 0.880757 0.739275
vt 0.880757 0.779191
vt 0.077706 0.835382
vt 0.077706 0.805415
vt 0.090328 0.805415
vt 0.090328 0.835382
vt 0.109500 0.805415
vt 0.096878 0.805415
vt 0.996768 0.337065
vt 0.996768 0.399198
vt 0.856610 0.399198
vt 0.864275 0.337065
vt 0.018040 0.823291
vt 0.018040 0.795066
vt 0.085921 0.795066
vt 0.085921 0.823291
vt 0.133924 0.337669
vt 0.141574 0.399833
vt 0.001688 0.399833
vt 0.001688 0.337669
vt 0.553610 0.664308
vt 0.548250 0.664308
vt 0.548250 0.651437
vt 0.553610 0.651437
vt 0.877754 0.996067
vt 0.880757 0.996067
vt 0.904083 0.245075
vt 0.917826 0.245075
vt 0.951877 0.245075
vt 0.965620 0.245075
vt 0.508134 0.664307
vt 0.504345 0.664307
vt 0.504345 0.651437
vt 0.508134 0.651437
vt 0.958191 0.853043
vt 0.961194 0.853043
vt 0.816500 0.244410
vt 0.830355 0.244410
vt 0.861955 0.284326
vt 0.876313 0.284326
vt 0.077706 0.780343
vt 0.090328 0.780343
vt 0.098487 -0.000526
vt -0.001699 -0.000526
vt 0.919458 0.922956
vt 0.987340 0.922956
vt 0.998222 -0.000090
vt 0.898230 -0.000090
vt 0.890309 0.853043
vt 0.887307 0.507755
vt 0.887307 0.853043
vt 0.407624 0.734943
vt 0.397994 0.744562
vt 0.381453 0.744562
vt 0.981800 0.491586
vt 0.994422 0.491586
vt 0.098841 -0.000090
vt 0.001687 -0.000090
vt 0.018040 0.976648
vt 0.085921 0.976648
vt 0.996768 -0.000526
vt 0.899425 -0.000526
vt 0.809873 0.996067
vt 0.077706 0.996725
vt 0.090328 0.996725
vt 0.949415 0.206378
vt 0.963659 0.206378
vt 0.806870 0.996067
vt 0.348608 0.661056
vt 0.358237 0.651437
vt 0.374903 0.651437
vt 0.342058 0.808015
vt 0.297212 0.899166
vt 0.287592 0.908786
vt 0.282233 0.908786
vt 0.282233 0.882491
vt 0.297212 0.882491
vt 0.303761 0.663141
vt 0.266064 0.899166
vt 0.256445 0.908786
vt 0.251085 0.908786
vt 0.251085 0.651437
vt 0.256445 0.651437
vt 0.266064 0.661056
vt 0.138540 0.882491
vt 0.138540 0.677608
vt 0.850661 0.501206
vt 0.867327 0.501206
vt 0.342058 0.819806
vt 0.303761 0.651437
vt 0.077706 0.651437
vt 0.080709 0.651437
vt 0.090328 0.657831
vt 0.851222 0.022497
vt 0.860281 0.012894
vt 0.867326 0.012894
vt 0.938687 0.022497
vt 0.947746 0.012894
vt 0.954667 0.012894
vt 0.222046 0.899166
vt 0.222046 0.892121
vt 0.234916 0.899166
vt 0.128920 0.661056
vt 0.128920 0.667978
vt 0.116050 0.661056
vt 0.098487 0.782887
vt 0.931576 0.003275
vt 0.931576 0.012894
vt 0.938126 0.003275
vt 0.938126 0.012894
vt 0.844111 0.003275
vt 0.844111 0.012894
vt 0.850661 0.003275
vt 0.850661 0.012894
vt 0.490741 0.676929
vt 0.490741 0.664307
vt 0.504345 0.676929
vt 0.973289 0.283094
vt 0.964297 0.501206
vt 0.514684 0.667310
vt 0.514684 0.664059
vt 0.905405 0.501206
vt 0.896413 0.283094
vt 0.885943 0.284326
vt 0.876956 0.501206
vt 0.817816 0.501206
vt 0.808830 0.284326
vt 0.548250 0.676929
vt 0.538627 0.676929
vt 0.538627 0.664308
vt 0.514684 0.651437
vt 0.528288 0.651437
vt 0.560159 0.664059
vt 0.560159 0.651437
vt 0.569782 0.651437
vt 0.973289 0.206378
vt 0.975250 0.245075
vt 0.894453 0.245075
vt 0.896413 0.206378
vt 0.885943 0.206489
vt 0.887903 0.244410
vt 0.806870 0.244410
vt 0.808830 0.206489
vt 0.964297 0.012894
vt 0.905405 0.012894
vt 0.876956 0.012894
vt 0.817816 0.012894
vt 0.272614 0.677608
vt 0.272614 0.661056
vt 0.241466 0.677732
vt 0.241466 0.661056
vt 0.272614 0.882491
vt 0.241466 0.899166
vt 0.241466 0.882615
vt 0.272614 0.899166
vt 0.560159 0.667310
vt 0.234916 0.908786
vt 0.222046 0.908786
vt 0.116050 0.651437
vt 0.128920 0.651437
vt 0.538627 0.661056
vt 0.490741 0.661056
vt 0.128920 0.908786
vt 0.116050 0.908786
vt 0.222046 0.651437
vt 0.234916 0.651437
s 0
usemtl Porte
f 10/5/2 4/6/2 8/7/2 11/8/2
f 12/13/3 6/14/3 2/15/3 9/16/3
f 17/17/4 19/18/4 5/19/4 1/20/4
f 20/21/1 18/22/1 2/23/1 6/24/1
f 15/25/3 12/13/3 9/16/3 16/26/3
f 31/27/5 30/28/5 20/29/5 107/30/5 106/31/5
f 13/32/2 10/5/2 11/8/2 14/33/2
f 39/34/6 37/35/6 23/36/6 115/37/6 114/38/6
f 80/39/6 25/40/6 13/41/6 77/42/6
f 77/43/2 13/32/2 14/33/2 78/44/2
f 71/45/5 22/46/5 15/47/5 70/48/5
f 70/49/3 15/25/3 16/26/3 69/50/3
f 69/55/6 16/56/6 21/57/6 72/58/6
f 109/59/6 112/60/6 18/61/6 33/62/6 35/63/6
f 116/64/6 115/37/6 23/36/6 4/65/6 10/66/6
f 30/67/1 33/68/1 18/22/1 20/21/1
f 16/56/6 9/78/6 111/79/6 110/80/6 21/57/6
f 117/81/5 120/82/5 27/83/5 42/84/5 43/85/5
f 3/86/4 7/87/4 24/88/4 26/89/4
f 8/7/1 4/6/1 23/90/1 27/91/1
f 78/96/5 14/97/5 28/98/5 79/99/5
f 43/85/5 42/84/5 30/28/5 31/27/5
f 42/129/1 37/130/1 33/68/1 30/67/1
f 27/91/1 23/90/1 37/130/1 42/129/1
f 35/63/6 33/62/6 37/35/6 39/34/6
f 11/156/5 8/157/5 27/83/5 120/82/5 119/158/5
f 25/40/6 113/222/6 116/64/6 10/66/6 13/41/6
f 14/97/5 11/156/5 119/158/5 118/223/5 28/98/5
f 108/224/5 107/30/5 20/29/5 6/225/5 12/226/5
f 9/78/6 2/230/6 18/61/6 112/60/6 111/79/6
f 92/252/6 54/253/6 56/254/6 87/255/6
f 85/258/3 53/259/3 54/260/3 92/261/3
f 86/262/5 55/263/5 53/264/5 85/265/5
f 94/285/5 62/286/5 63/287/5 95/288/5
f 93/289/2 61/290/2 62/291/2 94/292/2
f 96/293/6 64/294/6 61/295/6 93/296/6
f 54/253/6 69/55/6 72/58/6 56/254/6
f 53/259/3 70/49/3 69/50/3 54/260/3
f 55/263/5 71/45/5 70/48/5 53/264/5
f 62/286/5 78/96/5 79/99/5 63/287/5
f 61/290/2 77/43/2 78/44/2 62/291/2
f 64/294/6 80/39/6 77/42/6 61/295/6
f 19/319/5 86/262/5 85/265/5 5/320/5
f 5/321/3 85/258/3 92/261/3 1/322/3
f 1/323/6 92/252/6 87/255/6 17/324/6
f 26/333/6 96/293/6 93/296/6 3/334/6
f 3/335/2 93/289/2 94/292/2 7/336/2
f 7/337/5 94/285/5 95/288/5 24/338/5
f 105/382/5 106/31/5 107/30/5 108/224/5
f 109/59/6 110/80/6 111/79/6 112/60/6
f 113/222/6 114/38/6 115/37/6 116/64/6
f 117/81/5 118/223/5 119/158/5 120/82/5
f 22/46/5 105/382/5 108/224/5 12/226/5 15/47/5
usemtl Material
f 39/1/1 114/2/1 141/3/1 49/4/1
f 31/9/1 106/10/1 124/11/1 46/12/1
f 86/51/7 19/52/7 47/53/7 90/54/7
f 29/69/4 34/70/4 19/71/4 17/72/4
f 105/73/3 22/74/3 131/75/3 130/76/3 123/77/3
f 117/92/1 43/93/1 51/94/1 151/95/1
f 28/100/2 118/101/2 152/102/2 153/103/2 156/104/2
f 46/12/1 124/11/1 195/105/1 194/106/1
f 113/107/2 25/108/2 149/109/2 148/110/2 142/111/2
f 109/112/1 35/113/1 52/114/1 137/115/1
f 21/116/3 110/117/3 138/118/3 133/119/3 136/120/3
f 96/121/8 26/122/8 50/123/8 100/124/8
f 44/125/4 32/126/4 36/127/4 40/128/4
f 162/131/5 188/132/5 90/133/5 47/134/5
f 81/135/9 44/136/9 40/137/9 82/138/9
f 159/139/4 158/140/4 154/141/4 211/142/4 103/143/4
f 168/144/6 192/145/6 100/146/6 50/147/6
f 26/148/4 24/149/4 38/150/4 41/151/4
f 45/152/6 91/153/6 185/154/6 121/155/6
f 74/159/10 73/160/10 36/161/10 32/162/10
f 128/163/4 127/164/4 160/165/4 159/139/4 103/143/4 101/166/4
f 40/128/4 36/127/4 163/167/4 166/168/4 145/169/4 144/170/4
f 146/171/4 145/169/4 166/168/4 165/172/4 104/173/4 102/174/4
f 184/175/6 143/176/6 147/177/6 150/178/6 84/179/6
f 123/180/3 130/181/3 197/182/3 196/183/3
f 72/184/11 21/185/11 136/186/11 135/187/11 76/188/11
f 104/189/6 216/190/6 203/191/6 102/192/6
f 44/136/9 81/135/9 182/193/9 157/194/9
f 142/195/2 148/196/2 207/197/2 205/198/2
f 22/199/11 71/200/11 75/201/11 132/202/11 131/203/11
f 180/204/5 125/205/5 129/206/5 132/207/5 75/208/5
f 165/172/4 164/209/4 134/210/4 201/211/4 104/173/4
f 25/212/12 80/213/12 84/214/12 150/215/12 149/216/12
f 38/150/4 24/149/4 48/217/4 139/218/4 140/219/4
f 49/4/1 141/3/1 206/220/1 204/221/1
f 43/93/1 31/9/1 46/12/1 51/94/1
f 35/113/1 39/1/1 49/4/1 52/114/1
f 29/69/4 17/72/4 45/227/4 121/228/4 122/229/4
f 74/159/10 32/162/10 126/231/10 179/232/10
f 82/138/9 40/137/9 144/233/9 183/234/9
f 57/235/13 88/236/13 186/237/13 169/238/13
f 87/239/14 56/240/14 60/241/14 91/242/14
f 67/243/5 83/244/5 181/245/5 174/246/5
f 73/160/15 57/235/15 169/238/15 178/247/15
f 89/248/13 58/249/13 172/250/13 187/251/13
f 89/248/13 88/236/13 57/235/13 58/249/13
f 71/200/16 55/256/16 59/257/16 75/201/16
f 65/266/17 97/267/17 190/268/17 173/269/17
f 101/270/5 193/271/5 196/272/5 197/273/5 198/274/5
f 81/135/18 65/266/18 173/269/18 182/193/18
f 98/275/17 66/276/17 176/277/17 191/278/17
f 95/279/19 63/280/19 67/281/19 99/282/19
f 97/267/17 65/266/17 66/276/17 98/275/17
f 80/213/20 64/283/20 68/284/20 84/214/20
f 133/297/3 138/298/3 200/299/3 202/300/3
f 41/301/21 98/275/21 191/278/21 167/302/21
f 56/240/16 72/184/16 76/188/16 60/241/16
f 188/132/5 171/303/5 59/304/5 90/133/5
f 91/153/6 60/305/6 170/306/6 185/154/6
f 58/249/15 74/159/15 179/232/15 172/250/15
f 58/249/15 57/235/15 73/160/15 74/159/15
f 153/307/2 152/308/2 210/309/2 212/310/2
f 34/311/22 89/248/22 187/251/22 161/312/22
f 192/145/6 175/313/6 68/314/6 100/146/6
f 99/315/5 67/243/5 174/246/5 189/316/5
f 66/276/18 82/138/18 183/234/18 176/277/18
f 63/280/20 79/317/20 83/318/20 67/281/20
f 65/266/18 81/135/18 82/138/18 66/276/18
f 34/311/22 29/325/22 88/236/22 89/248/22
f 36/161/10 73/160/10 178/247/10 163/326/10
f 88/236/22 29/325/22 122/327/22 186/237/22
f 19/71/4 34/70/4 161/328/4 162/329/4 47/330/4
f 17/331/7 87/239/7 91/242/7 45/332/7
f 171/303/5 180/204/5 75/208/5 59/304/5
f 55/256/14 86/51/14 90/54/14 59/257/14
f 38/339/21 97/267/21 98/275/21 41/301/21
f 24/340/8 95/279/8 99/282/8 48/341/8
f 60/305/6 76/342/6 177/343/6 170/306/6
f 97/267/21 38/339/21 140/344/21 190/268/21
f 26/148/4 41/151/4 167/345/4 168/346/4 50/347/4
f 175/313/6 184/175/6 84/179/6 68/314/6
f 64/283/19 96/121/19 100/124/19 68/284/19
f 51/94/1 46/12/1 194/106/1 214/348/1
f 211/349/5 212/350/5 210/351/5 213/352/5 103/353/5
f 52/114/1 49/4/1 204/221/1 215/354/1
f 201/355/6 202/356/6 200/357/6 216/190/6 104/189/6
f 102/192/6 203/191/6 205/358/6 207/359/6 208/360/6
f 32/126/4 44/125/4 157/361/4 160/165/4 127/164/4 126/362/4
f 48/363/5 99/315/5 189/316/5 139/364/5
f 151/95/1 51/94/1 214/348/1 209/365/1
f 137/115/1 52/114/1 215/354/1 199/366/1
f 79/317/12 28/367/12 156/368/12 155/369/12 83/318/12
f 83/244/5 155/370/5 154/371/5 158/372/5 181/245/5
f 76/342/6 135/373/6 134/374/6 164/375/6 177/343/6
f 147/376/4 143/377/4 146/171/4 102/174/4 208/378/4
f 129/379/4 125/380/4 128/163/4 101/166/4 198/381/4
f 103/353/5 213/352/5 193/271/5 101/270/5
f 125/380/4 126/362/4 127/164/4 128/163/4
f 129/206/23 130/383/23 131/384/23 132/207/23
f 133/385/24 134/374/24 135/373/24 136/386/24
f 143/377/4 144/170/4 145/169/4 146/171/4
f 147/177/25 148/387/25 149/388/25 150/178/25
f 153/389/26 154/371/26 155/370/26 156/390/26
f 157/361/4 158/140/4 159/139/4 160/165/4
f 163/167/4 164/209/4 165/172/4 166/168/4
f 117/391/27 151/392/27 152/308/27 118/393/27
f 186/394/28 122/395/28 121/155/28 185/154/28
f 142/195/27 205/198/27 206/396/27 141/397/27
f 188/132/29 162/131/29 161/398/29 187/399/29
f 190/400/30 140/401/30 139/364/30 189/316/30
f 192/145/31 168/144/31 167/402/31 191/403/31
f 138/298/32 110/404/32 109/405/32 137/406/32
f 141/397/27 114/407/27 113/408/27 142/195/27
f 124/409/32 106/410/32 105/411/32 123/180/32
f 178/412/33 169/413/33 170/306/33 177/343/33
f 180/204/34 171/303/34 172/414/34 179/415/34
f 182/416/35 173/417/35 174/246/35 181/245/35
f 184/175/36 175/313/36 176/418/36 183/419/36
f 163/420/37 178/412/37 177/343/37 164/375/37
f 125/205/38 180/204/38 179/415/38 126/421/38
f 157/422/39 182/416/39 181/245/39 158/372/39
f 143/176/40 184/175/40 183/419/40 144/423/40
f 169/413/41 186/394/41 185/154/41 170/306/41
f 171/303/42 188/132/42 187/399/42 172/414/42
f 173/417/43 190/400/43 189/316/43 174/246/43
f 175/313/44 192/145/44 191/403/44 176/418/44
f 194/424/45 195/425/45 196/272/45 193/271/45
f 204/426/46 206/427/46 205/358/46 203/191/46
f 214/428/45 194/424/45 193/271/45 213/352/45
f 199/429/46 215/430/46 216/190/46 200/357/46
f 215/430/46 204/426/46 203/191/46 216/190/46
f 209/431/45 214/428/45 213/352/45 210/351/45
f 123/180/32 196/183/32 195/432/32 124/409/32
f 207/433/47 148/434/47 147/376/47 208/378/47
f 197/435/48 130/436/48 129/379/48 198/381/48
f 200/299/32 138/298/32 137/406/32 199/437/32
f 151/392/27 209/438/27 210/309/27 152/308/27
f 211/142/47 154/141/47 153/439/47 212/440/47
f 133/441/48 202/442/48 201/211/48 134/210/48
